 <svg version="1.0" xmlns="http://www.w3.org/2000/svg" width="700.000000pt" height="700.000000pt" viewBox="0 0 700.000000 700.000000" preserveAspectRatio="xMidYMid meet">
<metadata>
Created by potrace 1.12, written by Peter Selinger 2001-2015
</metadata>
<g transform="translate(0.000000,700.000000) scale(0.100000,-0.100000)" fill="#000000" stroke="none">
<path d="M0 3500 l0 -3500 3500 0 3500 0 0 3500 0 3500 -3500 0 -3500 0 0
-3500z m3731 1534 c235 -40 388 -109 522 -234 72 -67 91 -93 131 -172 52 -104
74 -179 83 -285 l6 -73 -260 0 -259 0 -17 54 c-55 175 -320 290 -557 243 -129
-26 -185 -53 -255 -121 -50 -49 -66 -73 -79 -116 -20 -67 -20 -93 -1 -158 21
-69 55 -106 128 -141 82 -38 175 -58 392 -82 537 -59 788 -171 912 -405 76
-143 101 -412 55 -577 -89 -315 -341 -505 -763 -573 -144 -23 -394 -24 -519
-1 -433 79 -714 311 -785 646 -8 40 -15 92 -15 117 l0 44 265 0 c257 0 265 -1
265 -20 0 -43 43 -131 86 -175 82 -85 217 -132 404 -142 127 -6 229 6 329 39
123 40 211 156 211 278 0 65 -29 139 -73 187 -72 78 -181 114 -423 138 -358
36 -472 61 -648 139 -134 60 -260 174 -311 283 -84 175 -89 430 -13 623 95
242 349 427 664 484 113 20 406 20 525 0z"></path>
</g>
</svg>